<?xml version="1.0" encoding="UTF-8" standalone="no"?>
<!-- Created with Inkscape (http://www.inkscape.org/) -->

<svg
   version="1.1"
   id="svg2"
   width="557.64667"
   height="490.42401"
   viewBox="0 0 557.64667 490.42401"
   sodipodi:docname="test.ai"
   xmlns:inkscape="http://www.inkscape.org/namespaces/inkscape"
   xmlns:sodipodi="http://sodipodi.sourceforge.net/DTD/sodipodi-0.dtd"
   xmlns="http://www.w3.org/2000/svg"
   xmlns:svg="http://www.w3.org/2000/svg">
  <defs
     id="defs6" />
  <sodipodi:namedview
     id="namedview4"
     pagecolor="#ffffff"
     bordercolor="#000000"
     borderopacity="0.25"
     inkscape:showpageshadow="2"
     inkscape:pageopacity="0.0"
     inkscape:pagecheckerboard="0"
     inkscape:deskcolor="#d1d1d1" />
  <g
     id="g8"
     inkscape:groupmode="layer"
     inkscape:label="test"
     transform="matrix(1.3333333,0,0,-1.3333333,0,490.424)">
    <g
       id="g10"
       transform="translate(137.2344,337.3533)">
      <path
         d="m 0,0 -3.692,-1.683 -4.603,10.097 3.692,1.683 z"
         style="fill:#ff9800;fill-opacity:1;fill-rule:nonzero;stroke:none"
         id="path12" />
    </g>
    <g
       id="g14"
       transform="translate(32.2476,253.3738)">
      <path
         d="M 0,0 -3.365,2.268 2.836,11.47 6.201,9.202 Z"
         style="fill:#ff9800;fill-opacity:1;fill-rule:nonzero;stroke:none"
         id="path16" />
    </g>
    <g
       id="g18"
       transform="translate(16.1245,173.6116)">
      <path
         d="m 0,0 -4.016,0.581 1.587,10.982 4.015,-0.58 z"
         style="fill:#ff9800;fill-opacity:1;fill-rule:nonzero;stroke:none"
         id="path20" />
    </g>
    <g
       id="g22"
       transform="translate(58.1313,287.0974)">
      <path
         d="M 0,0 -1.73,2.333 4.651,7.065 6.381,4.732 Z"
         style="fill:#ff809b;fill-opacity:1;fill-rule:nonzero;stroke:none"
         id="path24" />
    </g>
    <g
       id="g26"
       transform="translate(111.6245,318.5828)">
      <path
         d="m 0,0 -1.88,-3.817 -10.44,5.143 1.881,3.817 z"
         style="fill:#ff809b;fill-opacity:1;fill-rule:nonzero;stroke:none"
         id="path28" />
    </g>
    <g
       id="g30"
       transform="translate(7.6494,151.2298)">
      <path
         d="M 0,0 1.933,2.3 8.222,-2.985 6.29,-5.285 Z"
         style="fill:#ff809b;fill-opacity:1;fill-rule:nonzero;stroke:none"
         id="path32" />
    </g>
    <g
       id="g34"
       transform="translate(249.3984,299.0481)">
      <path
         d="m 0,0 -2.579,-1.883 -5.15,7.051 2.579,1.883 z"
         style="fill:#ff809b;fill-opacity:1;fill-rule:nonzero;stroke:none"
         id="path36" />
    </g>
    <g
       id="g38"
       transform="translate(208.4907,356.2893)">
      <path
         d="M 0,0 -2.452,-1.791 -7.35,4.915 -4.898,6.706 Z"
         style="fill:#ff809b;fill-opacity:1;fill-rule:nonzero;stroke:none"
         id="path40" />
    </g>
    <g
       id="g42"
       transform="translate(329.542,318.2527)">
      <path
         d="M 0,0 -2.51,3.436 6.888,10.3 9.398,6.864 Z"
         style="fill:#ff809b;fill-opacity:1;fill-rule:nonzero;stroke:none"
         id="path44" />
    </g>
    <g
       id="g46"
       transform="translate(166.2031,310.1716)">
      <path
         d="M 0,0 -2.784,3.179 5.908,10.792 8.692,7.614 Z"
         style="fill:#00d6d4;fill-opacity:1;fill-rule:nonzero;stroke:none"
         id="path48" />
    </g>
    <g
       id="g50"
       transform="translate(270.4224,284.0056)">
      <path
         d="M 0,0 -2.92,0.145 -2.525,8.131 0.396,7.987 Z"
         style="fill:#00d6d4;fill-opacity:1;fill-rule:nonzero;stroke:none"
         id="path52" />
    </g>
    <g
       id="g54"
       transform="translate(122.9053,246.1707)">
      <path
         d="M 0,0 -2.834,-0.315 -3.695,7.436 -0.861,7.75 Z"
         style="fill:#ff809b;fill-opacity:1;fill-rule:nonzero;stroke:none"
         id="path56" />
    </g>
    <g
       id="g58"
       transform="translate(0,120.7935)">
      <path
         d="M 0,0 2.988,-2.988 11.159,5.183 8.171,8.172 Z"
         style="fill:#00d6d4;fill-opacity:1;fill-rule:nonzero;stroke:none"
         id="path60" />
    </g>
    <g
       id="g62"
       transform="translate(91.6343,246.8137)">
      <path
         d="M 0,0 -3.394,2.517 3.489,11.799 6.883,9.282 Z"
         style="fill:#00d6d4;fill-opacity:1;fill-rule:nonzero;stroke:none"
         id="path64" />
    </g>
    <g
       id="g66"
       transform="translate(353.6802,196.0715)">
      <path
         d="M 0,0 -2.784,3.178 5.908,10.792 8.692,7.613 Z"
         style="fill:#00d6d4;fill-opacity:1;fill-rule:nonzero;stroke:none"
         id="path68" />
    </g>
    <g
       id="g70"
       transform="translate(54.2344,321.3533)">
      <path
         d="m 0,0 -3.692,-1.683 -4.603,10.097 3.692,1.683 z"
         style="fill:#ff9800;fill-opacity:1;fill-rule:nonzero;stroke:none"
         id="path72" />
    </g>
    <g
       id="g74"
       transform="translate(342.4595,38.9924)">
      <path
         d="M 0,0 -3.365,2.268 2.836,11.47 6.201,9.202 Z"
         style="fill:#ff9800;fill-opacity:1;fill-rule:nonzero;stroke:none"
         id="path76" />
    </g>
    <g
       id="g78"
       transform="translate(16.1245,173.6116)">
      <path
         d="m 0,0 -4.016,0.581 1.587,10.982 4.015,-0.58 z"
         style="fill:#ff9800;fill-opacity:1;fill-rule:nonzero;stroke:none"
         id="path80" />
    </g>
    <g
       id="g82"
       transform="translate(31.5142,287.0974)">
      <path
         d="M 0,0 -1.73,2.333 4.65,7.065 6.381,4.732 Z"
         style="fill:#ff809b;fill-opacity:1;fill-rule:nonzero;stroke:none"
         id="path84" />
    </g>
    <g
       id="g86"
       transform="translate(111.6245,318.5828)">
      <path
         d="m 0,0 -1.88,-3.817 -10.44,5.143 1.881,3.817 z"
         style="fill:#ff809b;fill-opacity:1;fill-rule:nonzero;stroke:none"
         id="path88" />
    </g>
    <g
       id="g90"
       transform="translate(7.6494,151.2298)">
      <path
         d="M 0,0 1.933,2.3 8.222,-2.985 6.29,-5.285 Z"
         style="fill:#ff809b;fill-opacity:1;fill-rule:nonzero;stroke:none"
         id="path92" />
    </g>
    <g
       id="g94"
       transform="translate(249.3984,299.0481)">
      <path
         d="m 0,0 -2.579,-1.883 -5.15,7.051 2.579,1.883 z"
         style="fill:#ff809b;fill-opacity:1;fill-rule:nonzero;stroke:none"
         id="path96" />
    </g>
    <g
       id="g98"
       transform="translate(181.873,356.2893)">
      <path
         d="M 0,0 -2.452,-1.791 -7.35,4.915 -4.898,6.706 Z"
         style="fill:#ff809b;fill-opacity:1;fill-rule:nonzero;stroke:none"
         id="path100" />
    </g>
    <g
       id="g102"
       transform="translate(329.542,318.2527)">
      <path
         d="M 0,0 -2.51,3.436 6.888,10.3 9.398,6.864 Z"
         style="fill:#ff809b;fill-opacity:1;fill-rule:nonzero;stroke:none"
         id="path104" />
    </g>
    <g
       id="g106"
       transform="translate(166.2031,310.1716)">
      <path
         d="M 0,0 -2.784,3.179 5.908,10.792 8.692,7.614 Z"
         style="fill:#00d6d4;fill-opacity:1;fill-rule:nonzero;stroke:none"
         id="path108" />
    </g>
    <g
       id="g110"
       transform="translate(299.4224,328.0056)">
      <path
         d="M 0,0 -2.92,0.145 -2.525,8.131 0.396,7.987 Z"
         style="fill:#00d6d4;fill-opacity:1;fill-rule:nonzero;stroke:none"
         id="path112" />
    </g>
    <g
       id="g114"
       transform="translate(122.9053,246.1707)">
      <path
         d="M 0,0 -2.834,-0.315 -3.695,7.436 -0.861,7.75 Z"
         style="fill:#ff809b;fill-opacity:1;fill-rule:nonzero;stroke:none"
         id="path116" />
    </g>
    <g
       id="g118"
       transform="translate(0,120.7935)">
      <path
         d="M 0,0 2.988,-2.988 11.159,5.183 8.171,8.172 Z"
         style="fill:#00d6d4;fill-opacity:1;fill-rule:nonzero;stroke:none"
         id="path120" />
    </g>
    <g
       id="g122"
       transform="translate(91.6343,246.8137)">
      <path
         d="M 0,0 -3.394,2.517 3.489,11.799 6.883,9.282 Z"
         style="fill:#00d6d4;fill-opacity:1;fill-rule:nonzero;stroke:none"
         id="path124" />
    </g>
    <g
       id="g126"
       transform="translate(353.6802,196.0715)">
      <path
         d="M 0,0 -2.784,3.178 5.908,10.792 8.692,7.613 Z"
         style="fill:#00d6d4;fill-opacity:1;fill-rule:nonzero;stroke:none"
         id="path128" />
    </g>
    <g
       id="g130"
       transform="translate(167.0371,245.176)">
      <path
         d="m 0,0 -3.692,-1.683 -4.603,10.098 3.692,1.683 z"
         style="fill:#ff9800;fill-opacity:1;fill-rule:nonzero;stroke:none"
         id="path132" />
    </g>
    <g
       id="g134"
       transform="translate(18.7451,54.3743)">
      <path
         d="M 0,0 -3.365,2.268 2.836,11.47 6.201,9.202 Z"
         style="fill:#ff9800;fill-opacity:1;fill-rule:nonzero;stroke:none"
         id="path136" />
    </g>
    <g
       id="g138"
       transform="translate(70.3096,129.4348)">
      <path
         d="m 0,0 -4.016,0.58 1.587,10.983 4.016,-0.58 z"
         style="fill:#ff9800;fill-opacity:1;fill-rule:nonzero;stroke:none"
         id="path140" />
    </g>
    <g
       id="g142"
       transform="translate(112.3169,242.9202)">
      <path
         d="M 0,0 -1.73,2.333 4.65,7.066 6.381,4.732 Z"
         style="fill:#ff809b;fill-opacity:1;fill-rule:nonzero;stroke:none"
         id="path144" />
    </g>
    <g
       id="g146"
       transform="translate(192.4272,274.4055)">
      <path
         d="m 0,0 -1.88,-3.817 -10.44,5.143 1.881,3.817 z"
         style="fill:#ff809b;fill-opacity:1;fill-rule:nonzero;stroke:none"
         id="path148" />
    </g>
    <g
       id="g150"
       transform="translate(88.4521,107.053)">
      <path
         d="M 0,0 1.933,2.3 8.222,-2.985 6.29,-5.285 Z"
         style="fill:#ff809b;fill-opacity:1;fill-rule:nonzero;stroke:none"
         id="path152" />
    </g>
    <g
       id="g154"
       transform="translate(330.2007,254.8714)">
      <path
         d="m 0,0 -2.578,-1.883 -5.15,7.05 2.578,1.884 z"
         style="fill:#ff809b;fill-opacity:1;fill-rule:nonzero;stroke:none"
         id="path156" />
    </g>
    <g
       id="g158"
       transform="translate(267.7779,367.8183)">
      <path
         d="m 0,0 -2.453,-1.791 4.898,-6.706 2.453,1.791 z"
         style="fill:#ff809b;fill-opacity:1;fill-rule:nonzero;stroke:none"
         id="path160" />
    </g>
    <g
       id="g162"
       transform="translate(172.0835,168.1438)">
      <path
         d="M 0,0 -2.51,3.436 6.888,10.3 9.398,6.864 Z"
         style="fill:#ff809b;fill-opacity:1;fill-rule:nonzero;stroke:none"
         id="path164" />
    </g>
    <g
       id="g166"
       transform="translate(247.0059,265.9949)">
      <path
         d="M 0,0 -2.784,3.178 5.908,10.792 8.692,7.614 Z"
         style="fill:#00d6d4;fill-opacity:1;fill-rule:nonzero;stroke:none"
         id="path168" />
    </g>
    <g
       id="g170"
       transform="translate(351.2251,239.8284)">
      <path
         d="M 0,0 -2.92,0.145 -2.525,8.132 0.396,7.987 Z"
         style="fill:#00d6d4;fill-opacity:1;fill-rule:nonzero;stroke:none"
         id="path172" />
    </g>
    <g
       id="g174"
       transform="translate(203.708,201.9934)">
      <path
         d="m 0,0 -2.834,-0.314 -0.861,7.75 2.834,0.315 z"
         style="fill:#ff809b;fill-opacity:1;fill-rule:nonzero;stroke:none"
         id="path176" />
    </g>
    <g
       id="g178"
       transform="translate(83.7905,73.6292)">
      <path
         d="M 0,0 -2.988,2.987 5.183,11.158 8.171,8.171 Z"
         style="fill:#00d6d4;fill-opacity:1;fill-rule:nonzero;stroke:none"
         id="path180" />
    </g>
    <g
       id="g182"
       transform="translate(172.437,202.637)">
      <path
         d="M 0,0 -3.394,2.517 3.489,11.799 6.883,9.281 Z"
         style="fill:#00d6d4;fill-opacity:1;fill-rule:nonzero;stroke:none"
         id="path184" />
    </g>
    <g
       id="g186"
       transform="translate(188.9546,169.4749)">
      <path
         d="M 0,0 -2.784,3.179 5.908,10.792 8.692,7.614 Z"
         style="fill:#00d6d4;fill-opacity:1;fill-rule:nonzero;stroke:none"
         id="path188" />
    </g>
    <g
       id="g190"
       transform="translate(188.9546,169.4749)">
      <path
         d="M 0,0 -2.784,3.179 5.908,10.792 8.692,7.614 Z"
         style="fill:#00d6d4;fill-opacity:1;fill-rule:nonzero;stroke:none"
         id="path192" />
    </g>
    <g
       id="g194"
       transform="translate(147.9551,176.2053)">
      <path
         d="M 0,0 -3.365,2.268 2.837,11.47 6.202,9.202 Z"
         style="fill:#ff9800;fill-opacity:1;fill-rule:nonzero;stroke:none"
         id="path196" />
    </g>
    <g
       id="g198"
       transform="translate(151.231,176.6272)">
      <path
         d="M 0,0 -3.365,2.268 2.837,11.47 6.202,9.202 Z"
         style="fill:#ff9800;fill-opacity:1;fill-rule:nonzero;stroke:none"
         id="path200" />
    </g>
    <g
       id="g202"
       transform="translate(168.7515,228.6965)">
      <path
         d="M 0,0 -2.578,-1.883 -7.729,5.168 -5.15,7.051 Z"
         style="fill:#ff809b;fill-opacity:1;fill-rule:nonzero;stroke:none"
         id="path204" />
    </g>
    <g
       id="g206"
       transform="translate(222.2778,247.9011)">
      <path
         d="M 0,0 -2.51,3.437 6.888,10.301 9.397,6.864 Z"
         style="fill:#ff809b;fill-opacity:1;fill-rule:nonzero;stroke:none"
         id="path208" />
    </g>
    <g
       id="g210"
       transform="translate(85.5562,239.8201)">
      <path
         d="M 0,0 -2.784,3.179 5.908,10.792 8.692,7.614 Z"
         style="fill:#00d6d4;fill-opacity:1;fill-rule:nonzero;stroke:none"
         id="path212" />
    </g>
    <g
       id="g214"
       transform="translate(189.7754,213.6536)">
      <path
         d="m 0,0 -2.92,0.146 0.396,7.986 2.92,-0.145 z"
         style="fill:#00d6d4;fill-opacity:1;fill-rule:nonzero;stroke:none"
         id="path216" />
    </g>
    <g
       id="g218"
       transform="translate(68.876,175.8196)">
      <path
         d="M 0,0 -2.834,-0.315 -3.695,7.436 -0.861,7.75 Z"
         style="fill:#ff809b;fill-opacity:1;fill-rule:nonzero;stroke:none"
         id="path220" />
    </g>
    <g
       id="g222"
       transform="translate(273.0332,125.72)">
      <path
         d="M 0,0 -2.784,3.178 5.908,10.792 8.692,7.613 Z"
         style="fill:#00d6d4;fill-opacity:1;fill-rule:nonzero;stroke:none"
         id="path224" />
    </g>
    <g
       id="g226"
       transform="translate(172.1831,132.1946)">
      <path
         d="M 0,0 -3.365,2.268 2.837,11.47 6.202,9.202 Z"
         style="fill:#ff9800;fill-opacity:1;fill-rule:nonzero;stroke:none"
         id="path228" />
    </g>
    <g
       id="g230"
       transform="translate(168.7515,228.6965)">
      <path
         d="M 0,0 -2.578,-1.883 -7.729,5.168 -5.15,7.051 Z"
         style="fill:#ff809b;fill-opacity:1;fill-rule:nonzero;stroke:none"
         id="path232" />
    </g>
    <g
       id="g234"
       transform="translate(222.2778,247.9011)">
      <path
         d="M 0,0 -2.51,3.437 6.888,10.301 9.397,6.864 Z"
         style="fill:#ff809b;fill-opacity:1;fill-rule:nonzero;stroke:none"
         id="path236" />
    </g>
    <g
       id="g238"
       transform="translate(85.5562,239.8201)">
      <path
         d="M 0,0 -2.784,3.179 5.908,10.792 8.692,7.614 Z"
         style="fill:#00d6d4;fill-opacity:1;fill-rule:nonzero;stroke:none"
         id="path240" />
    </g>
    <g
       id="g242"
       transform="translate(189.7754,213.6536)">
      <path
         d="m 0,0 -2.92,0.146 0.396,7.986 2.92,-0.145 z"
         style="fill:#00d6d4;fill-opacity:1;fill-rule:nonzero;stroke:none"
         id="path244" />
    </g>
    <g
       id="g246"
       transform="translate(42.2583,175.8196)">
      <path
         d="M 0,0 -2.834,-0.315 -3.695,7.436 -0.861,7.75 Z"
         style="fill:#ff809b;fill-opacity:1;fill-rule:nonzero;stroke:none"
         id="path248" />
    </g>
    <g
       id="g250"
       transform="translate(239.0332,124.72)">
      <path
         d="M 0,0 -2.784,3.178 5.908,10.792 8.692,7.613 Z"
         style="fill:#00d6d4;fill-opacity:1;fill-rule:nonzero;stroke:none"
         id="path252" />
    </g>
    <g
       id="g254"
       transform="translate(86.3906,174.8245)">
      <path
         d="m 0,0 -3.692,-1.683 -4.603,10.097 3.692,1.684 z"
         style="fill:#ff9800;fill-opacity:1;fill-rule:nonzero;stroke:none"
         id="path256" />
    </g>
    <g
       id="g258"
       transform="translate(408.6693,310.7178)">
      <path
         d="M 0,0 3.364,-2.268 9.566,6.934 6.201,9.202 Z"
         style="fill:#ff9800;fill-opacity:1;fill-rule:nonzero;stroke:none"
         id="path260" />
    </g>
    <g
       id="g262"
       transform="translate(58.2876,172.5686)">
      <path
         d="M 0,0 -1.73,2.334 4.65,7.066 6.381,4.732 Z"
         style="fill:#ff809b;fill-opacity:1;fill-rule:nonzero;stroke:none"
         id="path264" />
    </g>
    <g
       id="g266"
       transform="translate(111.7803,204.054)">
      <path
         d="m 0,0 -1.88,-3.817 -10.44,5.143 1.881,3.818 z"
         style="fill:#ff809b;fill-opacity:1;fill-rule:nonzero;stroke:none"
         id="path268" />
    </g>
    <g
       id="g270"
       transform="translate(249.5542,184.5198)">
      <path
         d="M 0,0 -2.578,-1.883 -7.729,5.168 -5.15,7.051 Z"
         style="fill:#ff809b;fill-opacity:1;fill-rule:nonzero;stroke:none"
         id="path272" />
    </g>
    <g
       id="g274"
       transform="translate(182.0288,241.761)">
      <path
         d="M 0,0 -2.452,-1.791 -7.35,4.915 -4.898,6.706 Z"
         style="fill:#ff809b;fill-opacity:1;fill-rule:nonzero;stroke:none"
         id="path276" />
    </g>
    <g
       id="g278"
       transform="translate(303.0806,203.7239)">
      <path
         d="M 0,0 -2.51,3.437 6.888,10.301 9.397,6.864 Z"
         style="fill:#ff809b;fill-opacity:1;fill-rule:nonzero;stroke:none"
         id="path280" />
    </g>
    <g
       id="g282"
       transform="translate(166.3589,195.6438)">
      <path
         d="M 0,0 -2.784,3.178 5.908,10.792 8.692,7.613 Z"
         style="fill:#00d6d4;fill-opacity:1;fill-rule:nonzero;stroke:none"
         id="path284" />
    </g>
    <g
       id="g286"
       transform="translate(270.5781,169.4768)">
      <path
         d="m 0,0 -2.92,0.145 0.396,7.987 2.92,-0.145 z"
         style="fill:#00d6d4;fill-opacity:1;fill-rule:nonzero;stroke:none"
         id="path288" />
    </g>
    <g
       id="g290"
       transform="translate(123.061,131.6419)">
      <path
         d="m 0,0 -2.834,-0.314 -0.861,7.75 2.834,0.315 z"
         style="fill:#ff809b;fill-opacity:1;fill-rule:nonzero;stroke:none"
         id="path292" />
    </g>
    <g
       id="g294"
       transform="translate(91.79,132.2854)">
      <path
         d="M 0,0 -3.394,2.517 3.489,11.799 6.883,9.282 Z"
         style="fill:#00d6d4;fill-opacity:1;fill-rule:nonzero;stroke:none"
         id="path296" />
    </g>
    <g
       id="g298"
       transform="translate(108.3081,99.1233)">
      <path
         d="M 0,0 -2.784,3.179 5.908,10.793 8.692,7.614 Z"
         style="fill:#00d6d4;fill-opacity:1;fill-rule:nonzero;stroke:none"
         id="path300" />
    </g>
    <g
       id="g302"
       transform="translate(108.3081,99.1233)">
      <path
         d="M 0,0 -2.784,3.179 5.908,10.793 8.692,7.614 Z"
         style="fill:#00d6d4;fill-opacity:1;fill-rule:nonzero;stroke:none"
         id="path304" />
    </g>
    <g
       id="g306"
       transform="translate(93.9263,105.8538)">
      <path
         d="M 0,0 -3.365,2.268 2.836,11.47 6.201,9.202 Z"
         style="fill:#ff9800;fill-opacity:1;fill-rule:nonzero;stroke:none"
         id="path308" />
    </g>
    <g
       id="g310"
       transform="translate(338.1421,176.8352)">
      <path
         d="M 0,0 -3.365,2.268 2.836,11.47 6.201,9.202 Z"
         style="fill:#ff9800;fill-opacity:1;fill-rule:nonzero;stroke:none"
         id="path312" />
    </g>
    <g
       id="g314"
       transform="translate(355.6621,228.9046)">
      <path
         d="M 0,0 -2.578,-1.883 -7.729,5.168 -5.15,7.051 Z"
         style="fill:#ff809b;fill-opacity:1;fill-rule:nonzero;stroke:none"
         id="path316" />
    </g>
    <g
       id="g318"
       transform="translate(197.5449,142.177)">
      <path
         d="M 0,0 -2.51,3.437 6.888,10.301 9.397,6.864 Z"
         style="fill:#ff809b;fill-opacity:1;fill-rule:nonzero;stroke:none"
         id="path320" />
    </g>
    <g
       id="g322"
       transform="translate(272.4668,240.0286)">
      <path
         d="M 0,0 -2.784,3.178 5.908,10.792 8.692,7.614 Z"
         style="fill:#00d6d4;fill-opacity:1;fill-rule:nonzero;stroke:none"
         id="path324" />
    </g>
    <g
       id="g326"
       transform="translate(165.0425,107.9299)">
      <path
         d="m 0,0 -2.92,0.145 0.396,7.987 2.92,-0.146 z"
         style="fill:#00d6d4;fill-opacity:1;fill-rule:nonzero;stroke:none"
         id="path328" />
    </g>
    <g
       id="g330"
       transform="translate(229.1694,176.0276)">
      <path
         d="M 0,0 -2.834,-0.315 -3.695,7.436 -0.861,7.75 Z"
         style="fill:#ff809b;fill-opacity:1;fill-rule:nonzero;stroke:none"
         id="path332" />
    </g>
    <g
       id="g334"
       transform="translate(248.3003,19.9954)">
      <path
         d="M 0,0 -2.784,3.179 5.908,10.793 8.692,7.614 Z"
         style="fill:#00d6d4;fill-opacity:1;fill-rule:nonzero;stroke:none"
         id="path336" />
    </g>
    <g
       id="g338"
       transform="translate(247.1421,309.8347)">
      <path
         d="M 0,0 -3.365,2.268 2.836,11.47 6.201,9.202 Z"
         style="fill:#ff9800;fill-opacity:1;fill-rule:nonzero;stroke:none"
         id="path340" />
    </g>
    <g
       id="g342"
       transform="translate(355.6621,228.9046)">
      <path
         d="M 0,0 -2.578,-1.883 -7.729,5.168 -5.15,7.051 Z"
         style="fill:#ff809b;fill-opacity:1;fill-rule:nonzero;stroke:none"
         id="path344" />
    </g>
    <g
       id="g346"
       transform="translate(197.5449,142.177)">
      <path
         d="M 0,0 -2.51,3.437 6.888,10.301 9.397,6.864 Z"
         style="fill:#ff809b;fill-opacity:1;fill-rule:nonzero;stroke:none"
         id="path348" />
    </g>
    <g
       id="g350"
       transform="translate(272.4668,240.0286)">
      <path
         d="M 0,0 -2.784,3.178 5.908,10.792 8.692,7.614 Z"
         style="fill:#00d6d4;fill-opacity:1;fill-rule:nonzero;stroke:none"
         id="path352" />
    </g>
    <g
       id="g354"
       transform="translate(165.0425,107.9299)">
      <path
         d="m 0,0 -2.92,0.145 0.396,7.987 2.92,-0.146 z"
         style="fill:#00d6d4;fill-opacity:1;fill-rule:nonzero;stroke:none"
         id="path356" />
    </g>
    <g
       id="g358"
       transform="translate(308.7397,184.135)">
      <path
         d="M 0,0 -2.834,-0.315 -3.695,7.436 -0.861,7.75 Z"
         style="fill:#ff809b;fill-opacity:1;fill-rule:nonzero;stroke:none"
         id="path360" />
    </g>
    <g
       id="g362"
       transform="translate(324.3862,73.8118)">
      <path
         d="M 0,0 -2.784,3.179 5.908,10.793 8.692,7.614 Z"
         style="fill:#00d6d4;fill-opacity:1;fill-rule:nonzero;stroke:none"
         id="path364" />
    </g>
    <g
       id="g366"
       transform="translate(273.3013,175.0325)">
      <path
         d="m 0,0 -3.692,-1.683 -4.603,10.097 3.692,1.684 z"
         style="fill:#ff9800;fill-opacity:1;fill-rule:nonzero;stroke:none"
         id="path368" />
    </g>
    <g
       id="g370"
       transform="translate(207.3008,26.7258)">
      <path
         d="M 0,0 -3.365,2.268 2.837,11.47 6.202,9.202 Z"
         style="fill:#ff9800;fill-opacity:1;fill-rule:nonzero;stroke:none"
         id="path372" />
    </g>
    <g
       id="g374"
       transform="translate(330.1436,144.0081)">
      <path
         d="M 0,0 -1.73,2.333 4.651,7.065 6.381,4.732 Z"
         style="fill:#ff809b;fill-opacity:1;fill-rule:nonzero;stroke:none"
         id="path376" />
    </g>
    <g
       id="g378"
       transform="translate(294.3447,40.7835)">
      <path
         d="m 0,0 -1.88,-3.817 -10.44,5.142 1.881,3.818 z"
         style="fill:#ff809b;fill-opacity:1;fill-rule:nonzero;stroke:none"
         id="path380" />
    </g>
    <g
       id="g382"
       transform="translate(224.8213,78.7952)">
      <path
         d="M 0,0 -2.578,-1.883 -7.729,5.168 -5.15,7.052 Z"
         style="fill:#ff809b;fill-opacity:1;fill-rule:nonzero;stroke:none"
         id="path384" />
    </g>
    <g
       id="g386"
       transform="translate(368.9395,241.969)">
      <path
         d="M 0,0 -2.452,-1.791 -7.35,4.915 -4.898,6.706 Z"
         style="fill:#ff809b;fill-opacity:1;fill-rule:nonzero;stroke:none"
         id="path388" />
    </g>
    <g
       id="g390"
       transform="translate(328.8375,3.4362)">
      <path
         d="m 0,0 2.51,-3.436 9.398,6.864 -2.51,3.436 z"
         style="fill:#ff809b;fill-opacity:1;fill-rule:nonzero;stroke:none"
         id="path392" />
    </g>
    <g
       id="g394"
       transform="translate(353.2695,195.8518)">
      <path
         d="M 0,0 -2.784,3.178 5.908,10.792 8.692,7.613 Z"
         style="fill:#00d6d4;fill-opacity:1;fill-rule:nonzero;stroke:none"
         id="path396" />
    </g>
    <g
       id="g398"
       transform="translate(245.8452,63.7532)">
      <path
         d="m 0,0 -2.92,0.145 0.396,7.986 2.92,-0.145 z"
         style="fill:#00d6d4;fill-opacity:1;fill-rule:nonzero;stroke:none"
         id="path400" />
    </g>
    <g
       id="g402"
       transform="translate(309.9722,131.8499)">
      <path
         d="m 0,0 -2.834,-0.314 -0.861,7.75 2.834,0.315 z"
         style="fill:#ff809b;fill-opacity:1;fill-rule:nonzero;stroke:none"
         id="path404" />
    </g>
    <g
       id="g406"
       transform="translate(172.1157,26.9905)">
      <path
         d="M 0,0 -3.394,2.517 3.49,11.798 6.883,9.281 Z"
         style="fill:#00d6d4;fill-opacity:1;fill-rule:nonzero;stroke:none"
         id="path408" />
    </g>
    <g
       id="g410"
       transform="translate(295.2187,99.3313)">
      <path
         d="M 0,0 -2.784,3.179 5.908,10.793 8.692,7.614 Z"
         style="fill:#00d6d4;fill-opacity:1;fill-rule:nonzero;stroke:none"
         id="path412" />
    </g>
    <g
       id="g414"
       transform="translate(295.2187,99.3313)">
      <path
         d="M 0,0 -2.784,3.179 5.908,10.793 8.692,7.614 Z"
         style="fill:#00d6d4;fill-opacity:1;fill-rule:nonzero;stroke:none"
         id="path416" />
    </g>
    <g
       id="g418"
       transform="translate(254.2192,106.0618)">
      <path
         d="M 0,0 -3.365,2.268 2.836,11.47 6.202,9.202 Z"
         style="fill:#ff9800;fill-opacity:1;fill-rule:nonzero;stroke:none"
         id="path420" />
    </g>
    <g
       id="g422"
       transform="translate(93.7451,36.4983)">
      <path
         d="M 0,0 -3.365,2.268 2.836,11.471 6.201,9.203 Z"
         style="fill:#ff9800;fill-opacity:1;fill-rule:nonzero;stroke:none"
         id="path424" />
    </g>
    <g
       id="g426"
       transform="translate(148.2173,64.0335)">
      <path
         d="M 0,0 -2.51,3.436 6.888,10.3 9.397,6.864 Z"
         style="fill:#ff809b;fill-opacity:1;fill-rule:nonzero;stroke:none"
         id="path428" />
    </g>
  </g>
</svg>
