<svg id="visual" viewBox="0 0 900 600" width="900" height="600" xmlns="http://www.w3.org/2000/svg" xmlns:xlink="http://www.w3.org/1999/xlink" version="1.1"><rect x="0" y="0" width="900" height="600" fill="#f8b4d9"></rect><defs><linearGradient id="grad1_0" x1="33.3%" y1="100%" x2="100%" y2="0%"><stop offset="20%" stop-color="#ffffff" stop-opacity="1"></stop><stop offset="80%" stop-color="#ffffff" stop-opacity="1"></stop></linearGradient></defs><defs><linearGradient id="grad1_1" x1="33.3%" y1="100%" x2="100%" y2="0%"><stop offset="20%" stop-color="#ffffff" stop-opacity="1"></stop><stop offset="80%" stop-color="#fddaec" stop-opacity="1"></stop></linearGradient></defs><defs><linearGradient id="grad1_2" x1="33.3%" y1="100%" x2="100%" y2="0%"><stop offset="20%" stop-color="#f8b4d9" stop-opacity="1"></stop><stop offset="80%" stop-color="#fddaec" stop-opacity="1"></stop></linearGradient></defs><defs><linearGradient id="grad2_0" x1="0%" y1="100%" x2="66.7%" y2="0%"><stop offset="20%" stop-color="#ffffff" stop-opacity="1"></stop><stop offset="80%" stop-color="#ffffff" stop-opacity="1"></stop></linearGradient></defs><defs><linearGradient id="grad2_1" x1="0%" y1="100%" x2="66.7%" y2="0%"><stop offset="20%" stop-color="#fddaec" stop-opacity="1"></stop><stop offset="80%" stop-color="#ffffff" stop-opacity="1"></stop></linearGradient></defs><defs><linearGradient id="grad2_2" x1="0%" y1="100%" x2="66.7%" y2="0%"><stop offset="20%" stop-color="#fddaec" stop-opacity="1"></stop><stop offset="80%" stop-color="#f8b4d9" stop-opacity="1"></stop></linearGradient></defs><g transform="translate(900, 600)"><path d="M-459.7 0C-408.7 -41.7 -357.8 -83.3 -342.8 -142C-327.8 -200.6 -348.7 -276.2 -325.1 -325.1C-301.4 -373.9 -233.1 -395.9 -171.4 -413.9C-109.8 -431.9 -54.9 -445.8 0 -459.7L0 0Z" fill="#fbc7e2"></path><path d="M-306.5 0C-272.5 -27.8 -238.5 -55.6 -228.5 -94.7C-218.5 -133.7 -232.5 -184.2 -216.7 -216.7C-200.9 -249.3 -155.4 -263.9 -114.3 -275.9C-73.2 -287.9 -36.6 -297.2 0 -306.5L0 0Z" fill="#feecf5"></path><path d="M-153.2 0C-136.2 -13.9 -119.3 -27.8 -114.3 -47.3C-109.3 -66.9 -116.2 -92.1 -108.4 -108.4C-100.5 -124.6 -77.7 -132 -57.1 -138C-36.6 -144 -18.3 -148.6 0 -153.2L0 0Z" fill="#ffffff"></path></g><g transform="translate(0, 0)"><path d="M459.7 0C377.6 31.9 295.5 63.8 275.3 114C255.2 164.3 297 232.8 291.3 291.3C285.6 349.8 232.4 398.3 175.9 424.7C119.4 451.1 59.7 455.4 0 459.7L0 0Z" fill="#fbc7e2"></path><path d="M306.5 0C251.7 21.3 197 42.5 183.5 76C170.1 109.5 198 155.2 194.2 194.2C190.4 233.2 154.9 265.5 117.3 283.1C79.6 300.7 39.8 303.6 0 306.5L0 0Z" fill="#feecf5"></path><path d="M153.2 0C125.9 10.6 98.5 21.3 91.8 38C85.1 54.8 99 77.6 97.1 97.1C95.2 116.6 77.5 132.8 58.6 141.6C39.8 150.4 19.9 151.8 0 153.2L0 0Z" fill="#ffffff"></path></g></svg>