<!--?xml version="1.0" standalone="no"?-->
              <svg id="sw-js-blob-svg" viewBox="0 0 100 100" xmlns="http://www.w3.org/2000/svg" version="1.1">
                    <defs> 
                        <linearGradient id="sw-gradient" x1="0" x2="1" y1="1" y2="0">
                            <stop id="stop1" stop-color="rgba(255, 255, 255, 1)" offset="0%"></stop>
                            <stop id="stop2" stop-color="rgba(255, 255, 255, 1)" offset="100%"></stop>
                        </linearGradient>
                    </defs>
                <path fill="url(#sw-gradient)" d="M26.2,-31.7C33.7,-24.9,39.3,-16.4,39.9,-7.8C40.4,0.7,35.8,9.4,31.1,18.4C26.5,27.5,21.6,36.9,14.2,40.1C6.7,43.4,-3.5,40.5,-11.5,35.7C-19.4,31,-25.1,24.4,-30.8,16.7C-36.5,9.1,-42.2,0.3,-42.4,-9C-42.6,-18.3,-37.3,-28.2,-29.3,-34.9C-21.3,-41.6,-10.7,-45,-0.7,-44.2C9.3,-43.4,18.7,-38.4,26.2,-31.7Z" width="100%" height="100%" transform="translate(50 50)" stroke-width="0" style="transition: all 0.3s ease 0s;"></path>
              </svg>